# xmcd
#
# Track frame offsets:
#	150
#	9879
#	19337
#	27650
#	36811
#	47838
#	57457
#	67537
#	76199
#	85138
#	94050
#	102758
#	111541
#	121338
#	132991
#	142549
#	151476
#	163301
#	171960
#	182024
#
# Disc length: 2524 seconds
#
# Revision: 0
# Processed by: cddbd v1.5.2PL0 Copyright (c) Steve Scherf et al.
# Submitted via: EasyCDDAExtractor 2010.6.0.0
#
DISCID=0109da14
DTITLE=Fats Domino - I'm Walking
DYEAR=1900
DGENRE=Rock and Roll
TTITLE0=I'm Walking
TTITLE1=The Rooster Song
TTITLE2=Valley Of Tears
TTITLE3=It's You Love
TTITLE4=What Will Tell My Heart
TTITLE5=When I See You
TTITLE6=My Happiness
TTITLE7=Wait And See
TTITLE8=I Still Love You
TTITLE9=The Big Beat
TTITLE10=I Want To Know
TTITLE11=Yes My Darling
TTITLE12=Don't You Know I Love You
TTITLE13=Sick And Tired
TTITLE14=No No ( The River )
TTITLE15=Little Mary
TTITLE16=Prisoner's Song
TTITLE17=Young Schoolgirl
TTITLE18=It Must Be Love
TTITLE19=Whole Lotta Loving
EXTD=
EXTT0=
EXTT1=
EXTT2=
EXTT3=
EXTT4=
EXTT5=
EXTT6=
EXTT7=
EXTT8=
EXTT9=
EXTT10=
EXTT11=
EXTT12=
EXTT13=
EXTT14=
EXTT15=
EXTT16=
EXTT17=
EXTT18=
EXTT19=
PLAYORDER=
